<svg width="103" height="103" viewBox="0 0 103 103" fill="none" xmlns="http://www.w3.org/2000/svg">
<path d="M57.0791 74.2458L37.3374 54.5042C36.9083 54.075 36.605 53.6101 36.4276 53.1094C36.2502 52.6087 36.1601 52.0722 36.1572 51.5C36.1572 50.9278 36.2474 50.3913 36.4276 49.8906C36.6079 49.3899 36.9111 48.925 37.3374 48.4958L57.0791 28.7542C57.8659 27.9674 58.8673 27.574 60.0833 27.574C61.2992 27.574 62.3006 27.9674 63.0874 28.7542C63.8742 29.541 64.2676 30.5424 64.2676 31.7583C64.2676 32.9743 63.8742 33.9757 63.0874 34.7625L46.3499 51.5L63.0874 68.2375C63.8742 69.0243 64.2676 70.0257 64.2676 71.2417C64.2676 72.4576 63.8742 73.459 63.0874 74.2458C62.3006 75.0326 61.2992 75.426 60.0833 75.426C58.8673 75.426 57.8659 75.0326 57.0791 74.2458Z" fill="#FB7C7C"/>
</svg>
