<svg width="56" height="56" viewBox="0 0 56 56" fill="none" xmlns="http://www.w3.org/2000/svg">
<path fill-rule="evenodd" clip-rule="evenodd" d="M28 2C29.3049 2 30.5874 2.09613 31.8407 2.28171L33.7271 7.9984C35.3816 8.47126 36.9518 9.14385 38.41 9.98845L43.8328 7.37504C45.7518 8.85034 47.459 10.5874 48.9011 12.5329L46.1921 17.9082C47.0099 19.3793 47.6544 20.9598 48.0982 22.6224L53.7804 24.6052C53.9253 25.7163 54 26.8494 54 28C54 29.3049 53.9039 30.5874 53.7183 31.8407L48.0016 33.7271C47.5287 35.3816 46.8561 36.9518 46.0116 38.41L48.625 43.8328C47.1497 45.7518 45.4126 47.459 43.4671 48.9011L38.0918 46.1921C36.6207 47.0099 35.0402 47.6544 33.3776 48.0982L31.3948 53.7804C30.2837 53.9253 29.1506 54 28 54C26.6951 54 25.4126 53.9039 24.1593 53.7183L22.2729 48.0016C20.6184 47.5287 19.0482 46.8561 17.59 46.0116L12.1672 48.625C10.2482 47.1497 8.54097 45.4126 7.09892 43.4671L9.80785 38.0918C8.98948 36.6196 8.3446 35.0378 7.90085 33.3739L2.21914 31.3911C2.07457 30.2812 2 29.1493 2 28C2 26.6951 2.09613 25.4126 2.28171 24.1593L7.9984 22.2729C8.47126 20.6184 9.14385 19.0482 9.98845 17.59L7.37504 12.1672C8.85034 10.2482 10.5874 8.54097 12.5329 7.09892L17.9082 9.80785C19.3804 8.98948 20.9622 8.3446 22.6261 7.90085L24.6089 2.21914C25.7188 2.07457 26.8507 2 28 2Z" stroke="#FB7C7C" stroke-width="3.46543" stroke-linecap="round" stroke-linejoin="round"/>
<path d="M28.0003 39.1429C34.1543 39.1429 39.1431 34.1541 39.1431 28C39.1431 21.846 34.1543 16.8572 28.0003 16.8572C21.8462 16.8572 16.8574 21.846 16.8574 28C16.8574 34.1541 21.8462 39.1429 28.0003 39.1429Z" stroke="#FB7C7C" stroke-width="3.71429" stroke-linecap="round" stroke-linejoin="round"/>
</svg>
