<svg width="55" height="55" viewBox="0 0 55 55" fill="none" xmlns="http://www.w3.org/2000/svg">
<path d="M54.5079 27.4279C54.5079 12.423 42.2807 0.195679 27.2757 0.195679C12.2707 0.195679 0.043457 12.423 0.043457 27.4279C0.043457 35.3253 3.44749 42.4329 8.83947 47.4164C8.83947 47.4436 8.83947 47.4436 8.81224 47.4709C9.08456 47.7432 9.41135 47.961 9.68367 48.2061C9.84706 48.3423 9.98322 48.4784 10.1466 48.5874C10.6368 48.9959 11.1814 49.3771 11.6989 49.7584C11.8895 49.8945 12.0529 50.0034 12.2435 50.1396C12.7609 50.4936 13.3056 50.8204 13.8774 51.12C14.0681 51.2289 14.2859 51.3651 14.4765 51.474C15.0212 51.7735 15.5931 52.0459 16.1922 52.291C16.41 52.3999 16.6279 52.5088 16.8458 52.5905C17.4449 52.8356 18.044 53.0535 18.6431 53.2441C18.8609 53.3258 19.0788 53.4075 19.2967 53.4619C19.9502 53.6526 20.6038 53.816 21.2574 53.9794C21.448 54.0338 21.6386 54.0883 21.8565 54.1155C22.619 54.2789 23.3815 54.3878 24.1712 54.4695C24.2802 54.4695 24.3891 54.4968 24.498 54.524C25.4239 54.6057 26.3498 54.6602 27.2757 54.6602C28.2016 54.6602 29.1275 54.6057 30.0262 54.524C30.1351 54.524 30.244 54.4968 30.3529 54.4695C31.1427 54.3878 31.9052 54.2789 32.6677 54.1155C32.8583 54.0883 33.0489 54.0066 33.2668 53.9794C33.9204 53.816 34.6012 53.6798 35.2275 53.4619C35.4454 53.3802 35.6632 53.2985 35.8811 53.2441C36.4802 53.0262 37.1065 52.8356 37.6784 52.5905C37.8963 52.5088 38.1141 52.3999 38.332 52.291C38.9039 52.0459 39.4757 51.7735 40.0476 51.474C40.2655 51.3651 40.4561 51.2289 40.6467 51.12C41.1914 50.7932 41.736 50.4936 42.2807 50.1396C42.4713 50.0307 42.6347 49.8945 42.8253 49.7584C43.3699 49.3771 43.8874 48.9959 44.3775 48.5874C44.5409 48.4512 44.6771 48.315 44.8405 48.2061C45.1401 47.961 45.4396 47.7159 45.7119 47.4709C45.7119 47.4436 45.7119 47.4436 45.6847 47.4164C51.1039 42.4329 54.5079 35.3253 54.5079 27.4279ZM40.7284 40.9623C33.3485 36.0061 21.2574 36.0061 13.823 40.9623C12.6248 41.7521 11.6444 42.678 10.8274 43.6856C6.68812 39.4918 4.12829 33.7458 4.12829 27.4279C4.12829 14.656 14.5038 4.28051 27.2757 4.28051C40.0476 4.28051 50.4231 14.656 50.4231 27.4279C50.4231 33.7458 47.8633 39.4918 43.724 43.6856C42.9342 42.678 41.9266 41.7521 40.7284 40.9623Z" fill="#96F5DF"/>
<path d="M27.2756 13.6204C21.6385 13.6204 17.0635 18.1954 17.0635 23.8325C17.0635 29.3606 21.3934 33.8539 27.1394 34.0173H27.3845H27.5751H27.6296C33.1305 33.8267 37.4604 29.3606 37.4877 23.8325C37.4877 18.1954 32.9126 13.6204 27.2756 13.6204Z" fill="#96F5DF"/>
</svg>
